<svg xmlns="http://www.w3.org/2000/svg" xmlns:xlink="http://www.w3.org/1999/xlink" width="500" zoomAndPan="magnify" viewBox="0 0 375 374.999991" height="500" preserveAspectRatio="xMidYMid meet" version="1.0"><defs><clipPath id="738cf2d8ae"><path d="M 1 54.203125 L 375 54.203125 L 375 320.453125 L 1 320.453125 Z M 1 54.203125 " clip-rule="nonzero"/></clipPath></defs><g clip-path="url(#738cf2d8ae)"><path fill="#ffffff" d="M 369.378906 125.535156 L 197.464844 55.035156 C 195.804688 54.203125 193.3125 54.203125 190.820312 55.035156 L 67.078125 105.628906 C 61.265625 107.289062 55.449219 109.777344 47.976562 113.09375 L 18.078125 125.535156 C 14.757812 127.195312 13.09375 129.683594 13.09375 133 C 13.09375 136.320312 14.757812 139.636719 18.078125 140.464844 L 18.910156 140.464844 C 12.265625 151.25 8.113281 164.519531 9.773438 181.109375 C 11.433594 199.355469 13.09375 213.457031 14.757812 224.238281 C 9.773438 230.046875 0.636719 240.828125 1.46875 254.097656 C 1.46875 258.246094 5.621094 261.5625 9.773438 261.5625 C 9.773438 261.5625 9.773438 261.5625 10.605469 261.5625 C 15.585938 261.5625 18.910156 257.417969 18.078125 252.441406 C 18.078125 249.953125 18.910156 247.464844 19.738281 244.976562 C 20.570312 248.292969 21.402344 249.953125 21.402344 249.953125 C 23.0625 252.441406 25.554688 254.097656 28.875 254.097656 C 29.707031 254.097656 31.367188 254.097656 32.195312 253.269531 C 36.347656 251.609375 38.011719 246.632812 36.347656 242.488281 C 36.347656 242.488281 35.519531 240.828125 34.6875 237.511719 C 40.5 240.828125 43.824219 245.804688 43.824219 246.632812 C 45.484375 249.121094 47.976562 250.78125 51.296875 250.78125 C 52.960938 250.78125 53.789062 250.78125 55.449219 249.953125 C 59.601562 247.464844 60.433594 242.488281 58.773438 238.339844 C 57.941406 237.511719 48.808594 220.921875 31.367188 219.261719 C 29.707031 209.308594 28.042969 196.039062 26.382812 178.621094 C 25.554688 165.347656 28.875 154.566406 33.859375 146.273438 L 77.042969 166.179688 L 77.042969 275.664062 C 77.042969 278.152344 78.703125 280.640625 80.367188 282.300781 C 82.855469 286.449219 132.6875 320.453125 194.144531 320.453125 C 255.601562 320.453125 305.429688 286.449219 307.089844 284.789062 C 309.582031 283.128906 310.414062 280.640625 310.414062 278.152344 L 310.414062 168.667969 L 369.378906 141.296875 C 372.699219 139.636719 374.363281 137.148438 374.363281 133.832031 C 374.363281 129.683594 372.699219 127.195312 369.378906 125.535156 Z M 294.632812 274.007812 C 291.3125 275.664062 287.160156 278.984375 280.515625 281.472656 L 280.515625 227.558594 C 280.515625 222.582031 277.195312 219.261719 272.210938 219.261719 C 267.226562 219.261719 263.90625 222.582031 263.90625 227.558594 L 263.90625 288.9375 C 245.636719 296.402344 220.71875 303.867188 194.144531 303.867188 C 146.804688 303.867188 106.109375 280.640625 93.652344 273.175781 L 93.652344 176.132812 L 189.992188 221.75 C 190.820312 222.582031 192.484375 222.582031 193.3125 222.582031 C 194.144531 222.582031 195.804688 222.582031 196.636719 221.75 L 292.972656 176.132812 L 292.972656 274.007812 Z M 194.144531 204.332031 L 46.316406 134.660156 C 49.636719 132.171875 52.960938 129.683594 57.113281 128.023438 L 194.144531 72.453125 L 345.292969 133.832031 Z M 194.144531 204.332031 " fill-opacity="1" fill-rule="nonzero"/></g></svg>