<svg xmlns="http://www.w3.org/2000/svg" xmlns:xlink="http://www.w3.org/1999/xlink" width="500" zoomAndPan="magnify" viewBox="0 0 375 374.999991" height="500" preserveAspectRatio="xMidYMid meet" version="1.0"><path fill="#fefefe" d="M 375.03125 187.515625 C 375.03125 190.585938 374.957031 193.652344 374.808594 196.71875 C 374.65625 199.78125 374.429688 202.84375 374.128906 205.894531 C 373.828125 208.949219 373.453125 211.996094 373.003906 215.03125 C 372.554688 218.066406 372.027344 221.089844 371.429688 224.097656 C 370.832031 227.109375 370.160156 230.101562 369.414062 233.078125 C 368.667969 236.054688 367.847656 239.011719 366.957031 241.949219 C 366.066406 244.886719 365.105469 247.800781 364.070312 250.6875 C 363.039062 253.578125 361.933594 256.441406 360.757812 259.277344 C 359.585938 262.109375 358.339844 264.914062 357.027344 267.691406 C 355.71875 270.464844 354.335938 273.203125 352.890625 275.910156 C 351.445312 278.617188 349.933594 281.285156 348.355469 283.917969 C 346.777344 286.550781 345.136719 289.144531 343.429688 291.695312 C 341.726562 294.246094 339.960938 296.753906 338.132812 299.21875 C 336.304688 301.683594 334.414062 304.101562 332.46875 306.476562 C 330.523438 308.847656 328.519531 311.171875 326.457031 313.445312 C 324.394531 315.71875 322.28125 317.941406 320.109375 320.109375 C 317.941406 322.28125 315.71875 324.394531 313.445312 326.457031 C 311.171875 328.519531 308.847656 330.523438 306.476562 332.46875 C 304.101562 334.414062 301.683594 336.304688 299.21875 338.132812 C 296.753906 339.960938 294.246094 341.726562 291.695312 343.429688 C 289.144531 345.136719 286.550781 346.777344 283.917969 348.355469 C 281.285156 349.933594 278.617188 351.445312 275.910156 352.890625 C 273.203125 354.335938 270.464844 355.71875 267.691406 357.027344 C 264.914062 358.339844 262.109375 359.585938 259.277344 360.757812 C 256.441406 361.933594 253.578125 363.039062 250.6875 364.070312 C 247.800781 365.105469 244.886719 366.066406 241.949219 366.957031 C 239.011719 367.847656 236.054688 368.667969 233.078125 369.414062 C 230.101562 370.160156 227.109375 370.832031 224.097656 371.429688 C 221.089844 372.027344 218.066406 372.554688 215.03125 373.003906 C 211.996094 373.453125 208.949219 373.828125 205.894531 374.128906 C 202.84375 374.429688 199.78125 374.65625 196.71875 374.808594 C 193.652344 374.957031 190.585938 375.03125 187.515625 375.03125 C 184.449219 375.03125 181.378906 374.957031 178.316406 374.808594 C 175.25 374.65625 172.191406 374.429688 169.136719 374.128906 C 166.082031 373.828125 163.039062 373.453125 160.003906 373.003906 C 156.964844 372.554688 153.945312 372.027344 150.933594 371.429688 C 147.925781 370.832031 144.929688 370.160156 141.953125 369.414062 C 138.976562 368.667969 136.019531 367.847656 133.082031 366.957031 C 130.148438 366.066406 127.234375 365.105469 124.34375 364.070312 C 121.453125 363.039062 118.59375 361.933594 115.757812 360.757812 C 112.921875 359.585938 110.117188 358.339844 107.34375 357.027344 C 104.570312 355.71875 101.828125 354.335938 99.121094 352.890625 C 96.414062 351.445312 93.746094 349.933594 91.113281 348.355469 C 88.480469 346.777344 85.890625 345.136719 83.335938 343.429688 C 80.785156 341.726562 78.277344 339.960938 75.8125 338.132812 C 73.347656 336.304688 70.929688 334.414062 68.558594 332.46875 C 66.183594 330.523438 63.863281 328.519531 61.589844 326.457031 C 59.3125 324.394531 57.09375 322.28125 54.921875 320.109375 C 52.753906 317.941406 50.636719 315.71875 48.574219 313.445312 C 46.515625 311.171875 44.511719 308.847656 42.5625 306.476562 C 40.617188 304.101562 38.730469 301.683594 36.902344 299.21875 C 35.074219 296.753906 33.308594 294.246094 31.601562 291.695312 C 29.898438 289.144531 28.257812 286.550781 26.679688 283.917969 C 25.101562 281.285156 23.589844 278.617188 22.140625 275.910156 C 20.695312 273.203125 19.316406 270.464844 18.003906 267.691406 C 16.691406 264.914062 15.449219 262.109375 14.273438 259.277344 C 13.097656 256.441406 11.996094 253.578125 10.960938 250.6875 C 9.925781 247.800781 8.964844 244.886719 8.074219 241.949219 C 7.183594 239.011719 6.367188 236.054688 5.621094 233.078125 C 4.875 230.101562 4.203125 227.109375 3.601562 224.097656 C 3.003906 221.089844 2.480469 218.066406 2.03125 215.03125 C 1.578125 211.996094 1.203125 208.949219 0.902344 205.894531 C 0.601562 202.84375 0.375 199.78125 0.226562 196.71875 C 0.0742188 193.652344 0 190.585938 0 187.515625 C 0 184.449219 0.0742188 181.378906 0.226562 178.316406 C 0.375 175.25 0.601562 172.191406 0.902344 169.136719 C 1.203125 166.082031 1.578125 163.039062 2.03125 160.003906 C 2.480469 156.964844 3.003906 153.945312 3.601562 150.933594 C 4.203125 147.925781 4.875 144.929688 5.621094 141.953125 C 6.367188 138.976562 7.183594 136.019531 8.074219 133.082031 C 8.964844 130.148438 9.925781 127.234375 10.960938 124.34375 C 11.996094 121.453125 13.097656 118.59375 14.273438 115.757812 C 15.449219 112.921875 16.691406 110.117188 18.003906 107.34375 C 19.316406 104.570312 20.695312 101.828125 22.140625 99.121094 C 23.589844 96.414062 25.101562 93.746094 26.679688 91.113281 C 28.257812 88.480469 29.898438 85.890625 31.601562 83.335938 C 33.308594 80.785156 35.074219 78.277344 36.902344 75.8125 C 38.730469 73.347656 40.617188 70.929688 42.5625 68.558594 C 44.511719 66.183594 46.515625 63.863281 48.574219 61.589844 C 50.636719 59.3125 52.753906 57.09375 54.921875 54.921875 C 57.09375 52.753906 59.3125 50.636719 61.589844 48.574219 C 63.863281 46.515625 66.183594 44.511719 68.558594 42.5625 C 70.929688 40.617188 73.347656 38.730469 75.8125 36.902344 C 78.277344 35.074219 80.785156 33.308594 83.335938 31.601562 C 85.890625 29.898438 88.480469 28.257812 91.113281 26.679688 C 93.746094 25.101562 96.414062 23.589844 99.121094 22.140625 C 101.828125 20.695312 104.570312 19.316406 107.34375 18.003906 C 110.117188 16.691406 112.921875 15.449219 115.757812 14.273438 C 118.59375 13.097656 121.453125 11.996094 124.34375 10.960938 C 127.234375 9.925781 130.148438 8.964844 133.082031 8.074219 C 136.019531 7.183594 138.976562 6.367188 141.953125 5.621094 C 144.929688 4.875 147.925781 4.203125 150.933594 3.601562 C 153.945312 3.003906 156.964844 2.480469 160.003906 2.03125 C 163.039062 1.578125 166.082031 1.203125 169.136719 0.902344 C 172.191406 0.601562 175.25 0.375 178.316406 0.226562 C 181.378906 0.0742188 184.449219 0 187.515625 0 C 190.585938 0 193.652344 0.0742188 196.71875 0.226562 C 199.78125 0.375 202.84375 0.601562 205.894531 0.902344 C 208.949219 1.203125 211.996094 1.578125 215.03125 2.03125 C 218.066406 2.480469 221.089844 3.003906 224.097656 3.601562 C 227.109375 4.203125 230.101562 4.875 233.078125 5.621094 C 236.054688 6.367188 239.011719 7.183594 241.949219 8.074219 C 244.886719 8.964844 247.800781 9.925781 250.6875 10.960938 C 253.578125 11.996094 256.441406 13.097656 259.277344 14.273438 C 262.109375 15.449219 264.914062 16.691406 267.691406 18.003906 C 270.464844 19.316406 273.203125 20.695312 275.910156 22.140625 C 278.617188 23.589844 281.285156 25.101562 283.917969 26.679688 C 286.550781 28.257812 289.144531 29.898438 291.695312 31.601562 C 294.246094 33.308594 296.753906 35.074219 299.21875 36.902344 C 301.683594 38.730469 304.101562 40.617188 306.476562 42.5625 C 308.847656 44.511719 311.171875 46.515625 313.445312 48.574219 C 315.71875 50.636719 317.941406 52.753906 320.109375 54.921875 C 322.28125 57.09375 324.394531 59.3125 326.457031 61.589844 C 328.519531 63.863281 330.523438 66.183594 332.46875 68.558594 C 334.414062 70.929688 336.304688 73.347656 338.132812 75.8125 C 339.960938 78.277344 341.726562 80.785156 343.429688 83.335938 C 345.136719 85.890625 346.777344 88.480469 348.355469 91.113281 C 349.933594 93.746094 351.445312 96.414062 352.890625 99.121094 C 354.335938 101.828125 355.71875 104.570312 357.027344 107.34375 C 358.339844 110.117188 359.585938 112.921875 360.757812 115.757812 C 361.933594 118.59375 363.039062 121.453125 364.070312 124.34375 C 365.105469 127.234375 366.066406 130.148438 366.957031 133.082031 C 367.847656 136.019531 368.667969 138.976562 369.414062 141.953125 C 370.160156 144.929688 370.832031 147.925781 371.429688 150.933594 C 372.027344 153.945312 372.554688 156.964844 373.003906 160.003906 C 373.453125 163.039062 373.828125 166.082031 374.128906 169.136719 C 374.429688 172.191406 374.65625 175.25 374.808594 178.316406 C 374.957031 181.378906 375.03125 184.449219 375.03125 187.515625 Z M 375.03125 187.515625 " fill-opacity="1" fill-rule="nonzero"/><path fill="#fefefe" d="M 156.730469 132.761719 C 168.242188 130.183594 169.046875 136.71875 172.296875 144.597656 C 173.726562 148.0625 175.039062 151.410156 176.53125 154.875 C 178.484375 159.390625 177.335938 161.738281 174.839844 165.105469 C 168.570312 173.578125 166.1875 171.210938 174.332031 182.066406 C 181.277344 191.34375 195.300781 203.738281 206.398438 206.445312 C 208.960938 207.070312 209.828125 206.003906 211.011719 204.738281 C 213.492188 202.078125 219.386719 194.019531 220.8125 193.492188 C 224.03125 192.34375 237.824219 199.929688 240.976562 201.457031 C 245.046875 203.441406 247.902344 203.507812 247.789062 208.449219 C 247.511719 220.550781 238.527344 228.792969 227.050781 230.089844 C 211.945312 231.796875 187.664062 220.46875 176.402344 210.796875 C 164.726562 200.78125 151.296875 185.332031 145.453125 171.410156 C 140.738281 160.179688 140.921875 148.570312 148.589844 138.800781 C 150.855469 135.898438 153.070312 133.53125 156.730469 132.710938 Z M 115.339844 261.464844 C 120.792969 260.59375 127.949219 258.265625 133.433594 256.804688 C 143.285156 254.175781 146.339844 252.042969 151.019531 254.816406 C 208.054688 288.71875 279.984375 248.019531 281.414062 182.359375 C 282.023438 154.300781 268.886719 131.398438 255.226562 118.625 C 248.050781 111.910156 239.578125 105.160156 227.921875 100.582031 C 148.917969 69.648438 77.839844 155.335938 122.351562 227.132812 C 124.585938 230.746094 123.746094 230.613281 122.449219 235.328125 C 120.527344 242.355469 116.425781 255.6875 115.355469 261.449219 Z M 115.339844 261.464844 " fill-opacity="1" fill-rule="evenodd"/><path fill="#ef5f20" d="M 115.355469 261.464844 C 116.425781 255.703125 120.511719 242.355469 122.449219 235.34375 C 123.746094 230.648438 124.585938 230.78125 122.351562 227.152344 C 77.855469 155.351562 148.917969 69.664062 227.921875 100.597656 C 239.597656 105.160156 248.050781 111.925781 255.226562 118.640625 C 268.886719 131.414062 282.023438 154.316406 281.414062 182.378906 C 279.984375 248.035156 208.054688 288.738281 151.019531 254.832031 C 146.339844 252.058594 143.300781 254.191406 133.433594 256.820312 C 127.949219 258.28125 120.792969 260.613281 115.339844 261.480469 Z M 90.449219 286.078125 C 96.640625 285.222656 106.046875 282.203125 112.367188 280.542969 C 119.886719 278.558594 127.078125 276.667969 134.46875 274.699219 C 147.847656 271.121094 143.351562 271.433594 154.992188 276.4375 C 195.726562 293.972656 236.164062 281.972656 264.832031 257.441406 C 268.542969 254.257812 271.972656 250.859375 275.125 246.804688 C 288.703125 229.398438 297.339844 210.929688 298.800781 186.84375 C 300.214844 163.875 293.398438 139.164062 280.742188 121.613281 L 271.515625 109.90625 C 270.265625 108.574219 269.082031 107.96875 267.867188 106.589844 C 264.125 102.320312 258.148438 97.65625 252.992188 94.160156 C 196.136719 55.640625 115.75 82.847656 95.34375 151.347656 C 90.710938 166.863281 89.792969 184.265625 93.027344 200.570312 C 94.621094 208.546875 96.753906 214.984375 99.675781 221.898438 C 104.617188 233.570312 106.046875 228.496094 102.351562 242.089844 C 100.398438 249.300781 98.347656 256.820312 96.359375 263.996094 C 94.472656 270.855469 91.632812 279.378906 90.433594 286.125 Z M 90.449219 286.078125 " fill-opacity="1" fill-rule="evenodd"/><path fill="#ef5f20" d="M 156.730469 132.761719 C 153.070312 133.582031 150.855469 135.945312 148.589844 138.851562 C 140.921875 148.621094 140.738281 160.230469 145.453125 171.460938 C 151.296875 185.398438 164.726562 200.832031 176.402344 210.847656 C 187.664062 220.519531 211.945312 231.847656 227.050781 230.140625 C 238.527344 228.84375 247.511719 220.601562 247.789062 208.5 C 247.902344 203.558594 245.0625 203.492188 240.976562 201.503906 C 237.824219 199.976562 224.015625 192.394531 220.8125 193.542969 C 219.386719 194.050781 213.492188 202.128906 211.011719 204.789062 C 209.828125 206.054688 208.960938 207.121094 206.398438 206.496094 C 195.316406 203.789062 181.292969 191.375 174.332031 182.113281 C 166.1875 171.261719 168.570312 173.625 174.839844 165.15625 C 177.335938 161.773438 178.46875 159.425781 176.53125 154.925781 C 175.039062 151.445312 173.726562 148.113281 172.296875 144.648438 C 169.046875 136.765625 168.242188 130.230469 156.730469 132.808594 Z M 156.730469 132.761719 " fill-opacity="1" fill-rule="evenodd"/></svg>