<svg xmlns="http://www.w3.org/2000/svg" xmlns:xlink="http://www.w3.org/1999/xlink" width="500" zoomAndPan="magnify" viewBox="0 0 375 374.999991" height="500" preserveAspectRatio="xMidYMid meet" version="1.0"><defs><clipPath id="cb79fc392e"><path d="M 2 55 L 371 55 L 371 321.421875 L 2 321.421875 Z M 2 55 " clip-rule="nonzero"/></clipPath></defs><g clip-path="url(#cb79fc392e)"><path fill="#ffffff" d="M 95.347656 58.964844 C 156.085938 54.210938 217.097656 54.210938 277.832031 58.964844 L 318.632812 62.15625 C 341.355469 63.933594 359.945312 80.972656 363.703125 103.464844 C 373.101562 159.734375 373.101562 217.179688 363.703125 273.453125 C 359.945312 295.941406 341.355469 312.980469 318.632812 314.757812 L 277.832031 317.953125 C 217.097656 322.703125 156.085938 322.703125 95.347656 317.953125 L 54.550781 314.757812 C 31.824219 312.980469 13.234375 295.941406 9.476562 273.453125 C 0.078125 217.179688 0.078125 159.734375 9.476562 103.464844 C 13.234375 80.972656 31.824219 63.933594 54.550781 62.15625 Z M 150.171875 233.449219 L 150.171875 143.464844 C 150.171875 139.21875 154.804688 136.59375 158.445312 138.78125 L 233.40625 183.773438 C 236.945312 185.894531 236.945312 191.019531 233.40625 193.140625 L 158.445312 238.136719 C 154.804688 240.320312 150.171875 237.695312 150.171875 233.449219 Z M 150.171875 233.449219 " fill-opacity="1" fill-rule="evenodd"/></g></svg>